<mxfile host="app.diagrams.net" agent="Mozilla/5.0 (Windows NT 10.0; Win64; x64) AppleWebKit/537.36 (KHTML, like Gecko) Chrome/131.0.0.0 Safari/537.36 Edg/131.0.0.0" version="24.8.4">
  <diagram name="Страница — 1" id="YBvoq69pjD3X23_Op8iv">
    <mxGraphModel dx="3996" dy="1758" grid="1" gridSize="10" guides="1" tooltips="1" connect="1" arrows="1" fold="1" page="1" pageScale="1" pageWidth="827" pageHeight="1169" math="0" shadow="0">
      <root>
        <mxCell id="0" />
        <mxCell id="1" parent="0" />
        <mxCell id="FAw5ZqKxNvdC2Ta-IT2S-1" value="Система по нахождению практик студентам" style="rounded=1;whiteSpace=wrap;html=1;" vertex="1" parent="1">
          <mxGeometry x="430" y="290" width="140" height="260" as="geometry" />
        </mxCell>
        <mxCell id="FAw5ZqKxNvdC2Ta-IT2S-2" value="Студент" style="rounded=0;whiteSpace=wrap;html=1;shadow=1;shadowOpacity=100;shadowOffsetX=-10;shadowOffsetY=-10;" vertex="1" parent="1">
          <mxGeometry x="-60" y="280" width="120" height="320" as="geometry" />
        </mxCell>
        <mxCell id="FAw5ZqKxNvdC2Ta-IT2S-3" value="Наниматель" style="rounded=0;whiteSpace=wrap;html=1;shadow=1;shadowOpacity=100;shadowOffsetX=-10;shadowOffsetY=-10;" vertex="1" parent="1">
          <mxGeometry x="900" y="300" width="120" height="280" as="geometry" />
        </mxCell>
        <mxCell id="FAw5ZqKxNvdC2Ta-IT2S-5" value="1" style="swimlane;horizontal=0;whiteSpace=wrap;html=1;" vertex="1" parent="1">
          <mxGeometry x="210" y="100" width="190" height="80" as="geometry" />
        </mxCell>
        <mxCell id="FAw5ZqKxNvdC2Ta-IT2S-7" value="БД вакансий" style="text;html=1;align=center;verticalAlign=middle;resizable=0;points=[];autosize=1;strokeColor=none;fillColor=none;" vertex="1" parent="FAw5ZqKxNvdC2Ta-IT2S-5">
          <mxGeometry x="50" y="25" width="90" height="30" as="geometry" />
        </mxCell>
        <mxCell id="FAw5ZqKxNvdC2Ta-IT2S-10" value="Информация про вакансии" style="text;html=1;align=center;verticalAlign=middle;whiteSpace=wrap;rounded=0;" vertex="1" parent="1">
          <mxGeometry x="370" y="210" width="60" height="30" as="geometry" />
        </mxCell>
        <mxCell id="FAw5ZqKxNvdC2Ta-IT2S-15" value="2" style="swimlane;horizontal=0;whiteSpace=wrap;html=1;" vertex="1" parent="1">
          <mxGeometry x="490" y="100" width="195" height="80" as="geometry" />
        </mxCell>
        <mxCell id="FAw5ZqKxNvdC2Ta-IT2S-16" value="БД резюме" style="text;html=1;align=center;verticalAlign=middle;resizable=0;points=[];autosize=1;strokeColor=none;fillColor=none;" vertex="1" parent="FAw5ZqKxNvdC2Ta-IT2S-15">
          <mxGeometry x="50" y="25" width="90" height="30" as="geometry" />
        </mxCell>
        <mxCell id="FAw5ZqKxNvdC2Ta-IT2S-18" value="" style="endArrow=classic;html=1;rounded=0;entryX=0;entryY=0.25;entryDx=0;entryDy=0;" edge="1" parent="1" target="FAw5ZqKxNvdC2Ta-IT2S-1">
          <mxGeometry width="50" height="50" relative="1" as="geometry">
            <mxPoint x="60" y="355" as="sourcePoint" />
            <mxPoint x="200" y="400" as="targetPoint" />
          </mxGeometry>
        </mxCell>
        <mxCell id="FAw5ZqKxNvdC2Ta-IT2S-19" value="Запросы на практику" style="text;html=1;align=center;verticalAlign=middle;whiteSpace=wrap;rounded=0;" vertex="1" parent="1">
          <mxGeometry x="150" y="320" width="70" height="30" as="geometry" />
        </mxCell>
        <mxCell id="FAw5ZqKxNvdC2Ta-IT2S-20" value="" style="endArrow=classic;html=1;rounded=0;entryX=1;entryY=0.5;entryDx=0;entryDy=0;exitX=-0.015;exitY=0.578;exitDx=0;exitDy=0;exitPerimeter=0;" edge="1" parent="1" source="FAw5ZqKxNvdC2Ta-IT2S-1" target="FAw5ZqKxNvdC2Ta-IT2S-2">
          <mxGeometry width="50" height="50" relative="1" as="geometry">
            <mxPoint x="390" y="440" as="sourcePoint" />
            <mxPoint x="280" y="470" as="targetPoint" />
          </mxGeometry>
        </mxCell>
        <mxCell id="FAw5ZqKxNvdC2Ta-IT2S-22" value="Информация о практиках" style="text;html=1;align=center;verticalAlign=middle;whiteSpace=wrap;rounded=0;" vertex="1" parent="1">
          <mxGeometry x="160" y="405" width="60" height="30" as="geometry" />
        </mxCell>
        <mxCell id="FAw5ZqKxNvdC2Ta-IT2S-23" value="" style="endArrow=classic;html=1;rounded=0;entryX=1;entryY=0.25;entryDx=0;entryDy=0;exitX=-0.008;exitY=0.196;exitDx=0;exitDy=0;exitPerimeter=0;" edge="1" parent="1" source="FAw5ZqKxNvdC2Ta-IT2S-3" target="FAw5ZqKxNvdC2Ta-IT2S-1">
          <mxGeometry width="50" height="50" relative="1" as="geometry">
            <mxPoint x="680" y="420" as="sourcePoint" />
            <mxPoint x="730" y="370" as="targetPoint" />
          </mxGeometry>
        </mxCell>
        <mxCell id="FAw5ZqKxNvdC2Ta-IT2S-24" value="Предложения практик" style="text;html=1;align=center;verticalAlign=middle;whiteSpace=wrap;rounded=0;" vertex="1" parent="1">
          <mxGeometry x="650" y="320" width="60" height="30" as="geometry" />
        </mxCell>
        <mxCell id="FAw5ZqKxNvdC2Ta-IT2S-25" value="" style="endArrow=classic;html=1;rounded=0;entryX=-0.017;entryY=0.364;entryDx=0;entryDy=0;entryPerimeter=0;exitX=0.992;exitY=0.428;exitDx=0;exitDy=0;exitPerimeter=0;" edge="1" parent="1" source="FAw5ZqKxNvdC2Ta-IT2S-1" target="FAw5ZqKxNvdC2Ta-IT2S-3">
          <mxGeometry width="50" height="50" relative="1" as="geometry">
            <mxPoint x="640" y="450" as="sourcePoint" />
            <mxPoint x="690" y="400" as="targetPoint" />
          </mxGeometry>
        </mxCell>
        <mxCell id="FAw5ZqKxNvdC2Ta-IT2S-26" value="Информация о студентах и их резюме" style="text;html=1;align=center;verticalAlign=middle;whiteSpace=wrap;rounded=0;" vertex="1" parent="1">
          <mxGeometry x="600" y="370" width="160" height="30" as="geometry" />
        </mxCell>
        <mxCell id="FAw5ZqKxNvdC2Ta-IT2S-27" value="" style="endArrow=classic;html=1;rounded=0;entryX=0;entryY=0.8;entryDx=0;entryDy=0;entryPerimeter=0;exitX=1.008;exitY=0.678;exitDx=0;exitDy=0;exitPerimeter=0;" edge="1" parent="1" source="FAw5ZqKxNvdC2Ta-IT2S-2" target="FAw5ZqKxNvdC2Ta-IT2S-1">
          <mxGeometry width="50" height="50" relative="1" as="geometry">
            <mxPoint x="110" y="520" as="sourcePoint" />
            <mxPoint x="160" y="470" as="targetPoint" />
          </mxGeometry>
        </mxCell>
        <mxCell id="FAw5ZqKxNvdC2Ta-IT2S-28" value="Отзывы о практике" style="text;html=1;align=center;verticalAlign=middle;whiteSpace=wrap;rounded=0;" vertex="1" parent="1">
          <mxGeometry x="150" y="460" width="60" height="30" as="geometry" />
        </mxCell>
        <mxCell id="FAw5ZqKxNvdC2Ta-IT2S-30" value="Информация о резюме студентов, желающий пойти на практику" style="text;html=1;align=center;verticalAlign=middle;whiteSpace=wrap;rounded=0;" vertex="1" parent="1">
          <mxGeometry x="600" y="220" width="60" height="30" as="geometry" />
        </mxCell>
        <mxCell id="FAw5ZqKxNvdC2Ta-IT2S-31" value="" style="endArrow=classic;html=1;rounded=0;entryX=0.029;entryY=0.978;entryDx=0;entryDy=0;entryPerimeter=0;exitX=0.994;exitY=0.817;exitDx=0;exitDy=0;exitPerimeter=0;" edge="1" parent="1" source="FAw5ZqKxNvdC2Ta-IT2S-2" target="FAw5ZqKxNvdC2Ta-IT2S-1">
          <mxGeometry width="50" height="50" relative="1" as="geometry">
            <mxPoint x="130" y="580" as="sourcePoint" />
            <mxPoint x="180" y="530" as="targetPoint" />
          </mxGeometry>
        </mxCell>
        <mxCell id="FAw5ZqKxNvdC2Ta-IT2S-32" value="Данные пользователя" style="text;html=1;align=center;verticalAlign=middle;whiteSpace=wrap;rounded=0;" vertex="1" parent="1">
          <mxGeometry x="160" y="510" width="60" height="30" as="geometry" />
        </mxCell>
        <mxCell id="FAw5ZqKxNvdC2Ta-IT2S-33" value="" style="endArrow=classic;html=1;rounded=0;entryX=1.013;entryY=0.648;entryDx=0;entryDy=0;entryPerimeter=0;exitX=-0.019;exitY=0.566;exitDx=0;exitDy=0;exitPerimeter=0;" edge="1" parent="1" source="FAw5ZqKxNvdC2Ta-IT2S-3" target="FAw5ZqKxNvdC2Ta-IT2S-1">
          <mxGeometry width="50" height="50" relative="1" as="geometry">
            <mxPoint x="660" y="520" as="sourcePoint" />
            <mxPoint x="710" y="470" as="targetPoint" />
          </mxGeometry>
        </mxCell>
        <mxCell id="FAw5ZqKxNvdC2Ta-IT2S-34" value="Данные пользователя" style="text;html=1;align=center;verticalAlign=middle;whiteSpace=wrap;rounded=0;" vertex="1" parent="1">
          <mxGeometry x="660" y="425" width="60" height="30" as="geometry" />
        </mxCell>
        <mxCell id="FAw5ZqKxNvdC2Ta-IT2S-35" value="" style="endArrow=classic;html=1;rounded=0;entryX=0.353;entryY=1.009;entryDx=0;entryDy=0;entryPerimeter=0;exitX=0.442;exitY=1.002;exitDx=0;exitDy=0;exitPerimeter=0;" edge="1" parent="1" source="FAw5ZqKxNvdC2Ta-IT2S-2" target="FAw5ZqKxNvdC2Ta-IT2S-1">
          <mxGeometry width="50" height="50" relative="1" as="geometry">
            <mxPoint x="110" y="670" as="sourcePoint" />
            <mxPoint x="160" y="620" as="targetPoint" />
            <Array as="points">
              <mxPoint x="-7" y="660" />
              <mxPoint x="480" y="660" />
            </Array>
          </mxGeometry>
        </mxCell>
        <mxCell id="FAw5ZqKxNvdC2Ta-IT2S-36" value="Текст сообщений" style="text;html=1;align=center;verticalAlign=middle;whiteSpace=wrap;rounded=0;" vertex="1" parent="1">
          <mxGeometry x="170" y="630" width="60" height="30" as="geometry" />
        </mxCell>
        <mxCell id="FAw5ZqKxNvdC2Ta-IT2S-37" value="" style="endArrow=classic;html=1;rounded=0;entryX=0.999;entryY=0.847;entryDx=0;entryDy=0;entryPerimeter=0;exitX=0;exitY=0.75;exitDx=0;exitDy=0;" edge="1" parent="1" source="FAw5ZqKxNvdC2Ta-IT2S-3" target="FAw5ZqKxNvdC2Ta-IT2S-1">
          <mxGeometry width="50" height="50" relative="1" as="geometry">
            <mxPoint x="700" y="590" as="sourcePoint" />
            <mxPoint x="750" y="540" as="targetPoint" />
          </mxGeometry>
        </mxCell>
        <mxCell id="FAw5ZqKxNvdC2Ta-IT2S-38" value="Текст сообщений" style="text;html=1;align=center;verticalAlign=middle;whiteSpace=wrap;rounded=0;" vertex="1" parent="1">
          <mxGeometry x="630" y="521" width="60" height="30" as="geometry" />
        </mxCell>
        <mxCell id="FAw5ZqKxNvdC2Ta-IT2S-39" value="Text" style="text;html=1;align=center;verticalAlign=middle;whiteSpace=wrap;rounded=0;" vertex="1" parent="1">
          <mxGeometry x="380" y="400" width="60" height="30" as="geometry" />
        </mxCell>
        <mxCell id="FAw5ZqKxNvdC2Ta-IT2S-40" value="Text" style="text;html=1;align=center;verticalAlign=middle;whiteSpace=wrap;rounded=0;" vertex="1" parent="1">
          <mxGeometry x="380" y="400" width="60" height="30" as="geometry" />
        </mxCell>
        <mxCell id="FAw5ZqKxNvdC2Ta-IT2S-41" value="0" style="text;html=1;align=center;verticalAlign=middle;whiteSpace=wrap;rounded=0;" vertex="1" parent="1">
          <mxGeometry x="520" y="290" width="60" height="30" as="geometry" />
        </mxCell>
        <mxCell id="FAw5ZqKxNvdC2Ta-IT2S-42" value="1" style="text;html=1;align=center;verticalAlign=middle;whiteSpace=wrap;rounded=0;" vertex="1" parent="1">
          <mxGeometry x="10" y="280" width="60" height="30" as="geometry" />
        </mxCell>
        <mxCell id="FAw5ZqKxNvdC2Ta-IT2S-43" value="2" style="text;html=1;align=center;verticalAlign=middle;whiteSpace=wrap;rounded=0;" vertex="1" parent="1">
          <mxGeometry x="970" y="300" width="60" height="30" as="geometry" />
        </mxCell>
        <mxCell id="FAw5ZqKxNvdC2Ta-IT2S-44" value="" style="endArrow=classic;startArrow=classic;html=1;rounded=0;entryX=0.5;entryY=1;entryDx=0;entryDy=0;exitX=0.25;exitY=0;exitDx=0;exitDy=0;" edge="1" parent="1" source="FAw5ZqKxNvdC2Ta-IT2S-1" target="FAw5ZqKxNvdC2Ta-IT2S-5">
          <mxGeometry width="50" height="50" relative="1" as="geometry">
            <mxPoint x="220" y="290" as="sourcePoint" />
            <mxPoint x="270" y="240" as="targetPoint" />
            <Array as="points">
              <mxPoint x="465" y="260" />
              <mxPoint x="305" y="260" />
            </Array>
          </mxGeometry>
        </mxCell>
        <mxCell id="FAw5ZqKxNvdC2Ta-IT2S-45" value="" style="endArrow=classic;startArrow=classic;html=1;rounded=0;exitX=0.333;exitY=0;exitDx=0;exitDy=0;entryX=0.25;entryY=1;entryDx=0;entryDy=0;exitPerimeter=0;" edge="1" parent="1" source="FAw5ZqKxNvdC2Ta-IT2S-41" target="FAw5ZqKxNvdC2Ta-IT2S-15">
          <mxGeometry width="50" height="50" relative="1" as="geometry">
            <mxPoint x="530" y="280" as="sourcePoint" />
            <mxPoint x="530" y="170" as="targetPoint" />
          </mxGeometry>
        </mxCell>
        <mxCell id="FAw5ZqKxNvdC2Ta-IT2S-48" value="" style="rounded=1;whiteSpace=wrap;html=1;" vertex="1" parent="1">
          <mxGeometry x="-640" y="755" width="120" height="60" as="geometry" />
        </mxCell>
        <mxCell id="FAw5ZqKxNvdC2Ta-IT2S-49" value="1" style="swimlane;horizontal=0;whiteSpace=wrap;html=1;" vertex="1" parent="1">
          <mxGeometry x="1050" y="615" width="170" height="60" as="geometry" />
        </mxCell>
        <mxCell id="FAw5ZqKxNvdC2Ta-IT2S-50" value="" style="endArrow=classic;html=1;rounded=0;entryX=0;entryY=0.5;entryDx=0;entryDy=0;" edge="1" parent="1" target="FAw5ZqKxNvdC2Ta-IT2S-48">
          <mxGeometry width="50" height="50" relative="1" as="geometry">
            <mxPoint x="-760" y="785" as="sourcePoint" />
            <mxPoint x="-750" y="785" as="targetPoint" />
          </mxGeometry>
        </mxCell>
        <mxCell id="FAw5ZqKxNvdC2Ta-IT2S-51" value="Данные пользователя" style="text;html=1;align=center;verticalAlign=middle;whiteSpace=wrap;rounded=0;" vertex="1" parent="1">
          <mxGeometry x="-770" y="755" width="60" height="30" as="geometry" />
        </mxCell>
        <mxCell id="FAw5ZqKxNvdC2Ta-IT2S-52" value="Регистрация" style="text;html=1;align=center;verticalAlign=middle;whiteSpace=wrap;rounded=0;" vertex="1" parent="1">
          <mxGeometry x="-610" y="770" width="60" height="30" as="geometry" />
        </mxCell>
        <mxCell id="FAw5ZqKxNvdC2Ta-IT2S-53" value="Поиск стажировки" style="rounded=1;whiteSpace=wrap;html=1;" vertex="1" parent="1">
          <mxGeometry x="160" y="990" width="120" height="60" as="geometry" />
        </mxCell>
        <mxCell id="FAw5ZqKxNvdC2Ta-IT2S-54" value="" style="endArrow=classic;html=1;rounded=0;exitX=1;exitY=0.5;exitDx=0;exitDy=0;" edge="1" parent="1" source="FAw5ZqKxNvdC2Ta-IT2S-48">
          <mxGeometry width="50" height="50" relative="1" as="geometry">
            <mxPoint x="-460" y="795" as="sourcePoint" />
            <mxPoint x="-350" y="785" as="targetPoint" />
          </mxGeometry>
        </mxCell>
        <mxCell id="FAw5ZqKxNvdC2Ta-IT2S-55" value="Учётная запись пользователя" style="text;html=1;align=center;verticalAlign=middle;whiteSpace=wrap;rounded=0;" vertex="1" parent="1">
          <mxGeometry x="-490" y="740" width="60" height="30" as="geometry" />
        </mxCell>
        <mxCell id="FAw5ZqKxNvdC2Ta-IT2S-56" value="" style="endArrow=classic;html=1;rounded=0;entryX=0;entryY=0.5;entryDx=0;entryDy=0;" edge="1" parent="1" target="FAw5ZqKxNvdC2Ta-IT2S-53">
          <mxGeometry width="50" height="50" relative="1" as="geometry">
            <mxPoint x="-10" y="1020" as="sourcePoint" />
            <mxPoint x="80" y="990" as="targetPoint" />
          </mxGeometry>
        </mxCell>
        <mxCell id="FAw5ZqKxNvdC2Ta-IT2S-57" value="Критерии поиска" style="text;html=1;align=center;verticalAlign=middle;whiteSpace=wrap;rounded=0;" vertex="1" parent="1">
          <mxGeometry x="40" y="980" width="60" height="30" as="geometry" />
        </mxCell>
        <mxCell id="FAw5ZqKxNvdC2Ta-IT2S-58" value="" style="endArrow=classic;html=1;rounded=0;exitX=1;exitY=0.5;exitDx=0;exitDy=0;entryX=0;entryY=0.5;entryDx=0;entryDy=0;" edge="1" parent="1" source="FAw5ZqKxNvdC2Ta-IT2S-53" target="FAw5ZqKxNvdC2Ta-IT2S-72">
          <mxGeometry width="50" height="50" relative="1" as="geometry">
            <mxPoint x="430" y="1010" as="sourcePoint" />
            <mxPoint x="490" y="1020" as="targetPoint" />
          </mxGeometry>
        </mxCell>
        <mxCell id="FAw5ZqKxNvdC2Ta-IT2S-62" value="Результаты поиск" style="text;html=1;align=center;verticalAlign=middle;whiteSpace=wrap;rounded=0;" vertex="1" parent="1">
          <mxGeometry x="320" y="980" width="60" height="30" as="geometry" />
        </mxCell>
        <mxCell id="FAw5ZqKxNvdC2Ta-IT2S-63" value="Публикация стажировок" style="rounded=1;whiteSpace=wrap;html=1;" vertex="1" parent="1">
          <mxGeometry x="-120" y="850" width="120" height="60" as="geometry" />
        </mxCell>
        <mxCell id="FAw5ZqKxNvdC2Ta-IT2S-64" value="" style="endArrow=classic;html=1;rounded=0;entryX=0;entryY=0.5;entryDx=0;entryDy=0;" edge="1" parent="1" target="FAw5ZqKxNvdC2Ta-IT2S-63">
          <mxGeometry width="50" height="50" relative="1" as="geometry">
            <mxPoint x="-220" y="880" as="sourcePoint" />
            <mxPoint x="-160" y="880" as="targetPoint" />
          </mxGeometry>
        </mxCell>
        <mxCell id="FAw5ZqKxNvdC2Ta-IT2S-65" value="Информация о стажировках компаний" style="text;html=1;align=center;verticalAlign=middle;whiteSpace=wrap;rounded=0;" vertex="1" parent="1">
          <mxGeometry x="-200" y="830" width="60" height="30" as="geometry" />
        </mxCell>
        <mxCell id="FAw5ZqKxNvdC2Ta-IT2S-68" value="" style="endArrow=classic;html=1;rounded=0;exitX=1;exitY=0.5;exitDx=0;exitDy=0;" edge="1" parent="1" source="FAw5ZqKxNvdC2Ta-IT2S-63" target="FAw5ZqKxNvdC2Ta-IT2S-69">
          <mxGeometry width="50" height="50" relative="1" as="geometry">
            <mxPoint x="60" y="910" as="sourcePoint" />
            <mxPoint x="120" y="880" as="targetPoint" />
          </mxGeometry>
        </mxCell>
        <mxCell id="FAw5ZqKxNvdC2Ta-IT2S-69" value="1" style="swimlane;horizontal=0;whiteSpace=wrap;html=1;startSize=23;" vertex="1" parent="1">
          <mxGeometry x="20" y="840" width="200" height="70" as="geometry" />
        </mxCell>
        <mxCell id="FAw5ZqKxNvdC2Ta-IT2S-70" value="Данные о стажировках" style="text;html=1;align=center;verticalAlign=middle;resizable=0;points=[];autosize=1;strokeColor=none;fillColor=none;" vertex="1" parent="FAw5ZqKxNvdC2Ta-IT2S-69">
          <mxGeometry x="25" y="20" width="150" height="30" as="geometry" />
        </mxCell>
        <mxCell id="FAw5ZqKxNvdC2Ta-IT2S-72" value="Выбор результата" style="rounded=1;whiteSpace=wrap;html=1;" vertex="1" parent="1">
          <mxGeometry x="520" y="990" width="120" height="60" as="geometry" />
        </mxCell>
        <mxCell id="FAw5ZqKxNvdC2Ta-IT2S-73" value="" style="endArrow=classic;html=1;rounded=0;entryX=0;entryY=0.5;entryDx=0;entryDy=0;" edge="1" parent="1" source="FAw5ZqKxNvdC2Ta-IT2S-72" target="FAw5ZqKxNvdC2Ta-IT2S-85">
          <mxGeometry width="50" height="50" relative="1" as="geometry">
            <mxPoint x="670" y="1060" as="sourcePoint" />
            <mxPoint x="840" y="1020" as="targetPoint" />
          </mxGeometry>
        </mxCell>
        <mxCell id="FAw5ZqKxNvdC2Ta-IT2S-77" value="Выбранный результат" style="text;html=1;align=center;verticalAlign=middle;whiteSpace=wrap;rounded=0;" vertex="1" parent="1">
          <mxGeometry x="670" y="980" width="60" height="30" as="geometry" />
        </mxCell>
        <mxCell id="FAw5ZqKxNvdC2Ta-IT2S-79" value="" style="endArrow=classic;html=1;rounded=0;exitX=1;exitY=0.5;exitDx=0;exitDy=0;entryX=0.5;entryY=0;entryDx=0;entryDy=0;" edge="1" parent="1" source="FAw5ZqKxNvdC2Ta-IT2S-69" target="FAw5ZqKxNvdC2Ta-IT2S-53">
          <mxGeometry width="50" height="50" relative="1" as="geometry">
            <mxPoint x="330" y="900" as="sourcePoint" />
            <mxPoint x="380" y="850" as="targetPoint" />
            <Array as="points">
              <mxPoint x="250" y="875" />
              <mxPoint x="250" y="950" />
              <mxPoint x="220" y="950" />
            </Array>
          </mxGeometry>
        </mxCell>
        <mxCell id="FAw5ZqKxNvdC2Ta-IT2S-81" value="Ввод данных" style="rounded=1;whiteSpace=wrap;html=1;" vertex="1" parent="1">
          <mxGeometry y="1260" width="120" height="60" as="geometry" />
        </mxCell>
        <mxCell id="FAw5ZqKxNvdC2Ta-IT2S-82" value="" style="endArrow=classic;html=1;rounded=0;entryX=0;entryY=0.5;entryDx=0;entryDy=0;" edge="1" parent="1" target="FAw5ZqKxNvdC2Ta-IT2S-81">
          <mxGeometry width="50" height="50" relative="1" as="geometry">
            <mxPoint x="-170" y="1290" as="sourcePoint" />
            <mxPoint x="-120" y="1250" as="targetPoint" />
          </mxGeometry>
        </mxCell>
        <mxCell id="FAw5ZqKxNvdC2Ta-IT2S-84" value="" style="endArrow=classic;html=1;rounded=0;exitX=1;exitY=0.5;exitDx=0;exitDy=0;entryX=0;entryY=0.5;entryDx=0;entryDy=0;" edge="1" parent="1" source="FAw5ZqKxNvdC2Ta-IT2S-81" target="FAw5ZqKxNvdC2Ta-IT2S-88">
          <mxGeometry width="50" height="50" relative="1" as="geometry">
            <mxPoint x="210" y="1290" as="sourcePoint" />
            <mxPoint x="280" y="1290" as="targetPoint" />
          </mxGeometry>
        </mxCell>
        <mxCell id="FAw5ZqKxNvdC2Ta-IT2S-85" value="Управление стажировкой" style="rounded=1;whiteSpace=wrap;html=1;" vertex="1" parent="1">
          <mxGeometry x="870" y="990" width="120" height="60" as="geometry" />
        </mxCell>
        <mxCell id="FAw5ZqKxNvdC2Ta-IT2S-86" value="" style="endArrow=classic;html=1;rounded=0;exitX=1;exitY=0.5;exitDx=0;exitDy=0;" edge="1" parent="1" source="FAw5ZqKxNvdC2Ta-IT2S-85">
          <mxGeometry width="50" height="50" relative="1" as="geometry">
            <mxPoint x="1080" y="1020" as="sourcePoint" />
            <mxPoint x="1130" y="1020" as="targetPoint" />
          </mxGeometry>
        </mxCell>
        <mxCell id="FAw5ZqKxNvdC2Ta-IT2S-87" value="Результаты работы со стажировкой" style="text;html=1;align=center;verticalAlign=middle;whiteSpace=wrap;rounded=0;" vertex="1" parent="1">
          <mxGeometry x="1010" y="970" width="60" height="30" as="geometry" />
        </mxCell>
        <mxCell id="FAw5ZqKxNvdC2Ta-IT2S-88" value="Отображение" style="rounded=1;whiteSpace=wrap;html=1;" vertex="1" parent="1">
          <mxGeometry x="294" y="1260" width="120" height="60" as="geometry" />
        </mxCell>
        <mxCell id="FAw5ZqKxNvdC2Ta-IT2S-89" value="" style="endArrow=classic;html=1;rounded=0;exitX=1;exitY=0.5;exitDx=0;exitDy=0;" edge="1" parent="1" source="FAw5ZqKxNvdC2Ta-IT2S-88">
          <mxGeometry width="50" height="50" relative="1" as="geometry">
            <mxPoint x="510" y="1310" as="sourcePoint" />
            <mxPoint x="560" y="1290" as="targetPoint" />
          </mxGeometry>
        </mxCell>
        <mxCell id="FAw5ZqKxNvdC2Ta-IT2S-90" value="Данные" style="text;html=1;align=center;verticalAlign=middle;whiteSpace=wrap;rounded=0;" vertex="1" parent="1">
          <mxGeometry x="-120" y="1250" width="60" height="30" as="geometry" />
        </mxCell>
        <mxCell id="FAw5ZqKxNvdC2Ta-IT2S-91" value="Результат" style="text;html=1;align=center;verticalAlign=middle;whiteSpace=wrap;rounded=0;" vertex="1" parent="1">
          <mxGeometry x="135" y="1250" width="60" height="30" as="geometry" />
        </mxCell>
        <mxCell id="FAw5ZqKxNvdC2Ta-IT2S-92" value="Отображённый результат" style="text;html=1;align=center;verticalAlign=middle;whiteSpace=wrap;rounded=0;" vertex="1" parent="1">
          <mxGeometry x="440" y="1250" width="60" height="30" as="geometry" />
        </mxCell>
        <mxCell id="FAw5ZqKxNvdC2Ta-IT2S-93" value="Откликнуться на стажировку" style="rounded=1;whiteSpace=wrap;html=1;" vertex="1" parent="1">
          <mxGeometry x="-130" y="1460" width="120" height="60" as="geometry" />
        </mxCell>
        <mxCell id="FAw5ZqKxNvdC2Ta-IT2S-94" value="" style="endArrow=classic;html=1;rounded=0;entryX=0;entryY=0.5;entryDx=0;entryDy=0;" edge="1" parent="1" target="FAw5ZqKxNvdC2Ta-IT2S-93">
          <mxGeometry width="50" height="50" relative="1" as="geometry">
            <mxPoint x="-310" y="1490" as="sourcePoint" />
            <mxPoint x="-260" y="1490" as="targetPoint" />
          </mxGeometry>
        </mxCell>
        <mxCell id="FAw5ZqKxNvdC2Ta-IT2S-95" value="Выбранный результат поиска" style="text;html=1;align=center;verticalAlign=middle;whiteSpace=wrap;rounded=0;" vertex="1" parent="1">
          <mxGeometry x="-270" y="1440" width="60" height="30" as="geometry" />
        </mxCell>
        <mxCell id="FAw5ZqKxNvdC2Ta-IT2S-96" value="Оставить отзыв на стажировку" style="rounded=1;whiteSpace=wrap;html=1;" vertex="1" parent="1">
          <mxGeometry x="-130" y="1590" width="120" height="60" as="geometry" />
        </mxCell>
        <mxCell id="FAw5ZqKxNvdC2Ta-IT2S-97" value="" style="endArrow=classic;html=1;rounded=0;entryX=0;entryY=0.5;entryDx=0;entryDy=0;" edge="1" parent="1" target="FAw5ZqKxNvdC2Ta-IT2S-96">
          <mxGeometry width="50" height="50" relative="1" as="geometry">
            <mxPoint x="-310" y="1620" as="sourcePoint" />
            <mxPoint x="-260" y="1620" as="targetPoint" />
          </mxGeometry>
        </mxCell>
        <mxCell id="FAw5ZqKxNvdC2Ta-IT2S-98" value="Выбранный результат поиска" style="text;html=1;align=center;verticalAlign=middle;whiteSpace=wrap;rounded=0;" vertex="1" parent="1">
          <mxGeometry x="-270" y="1570" width="60" height="30" as="geometry" />
        </mxCell>
        <mxCell id="FAw5ZqKxNvdC2Ta-IT2S-99" value="1" style="text;html=1;align=center;verticalAlign=middle;whiteSpace=wrap;rounded=0;" vertex="1" parent="1">
          <mxGeometry x="-50" y="850" width="60" height="30" as="geometry" />
        </mxCell>
        <mxCell id="FAw5ZqKxNvdC2Ta-IT2S-100" value="2" style="text;html=1;align=center;verticalAlign=middle;whiteSpace=wrap;rounded=0;" vertex="1" parent="1">
          <mxGeometry x="240" y="990" width="60" height="30" as="geometry" />
        </mxCell>
        <mxCell id="FAw5ZqKxNvdC2Ta-IT2S-101" value="3" style="text;html=1;align=center;verticalAlign=middle;whiteSpace=wrap;rounded=0;" vertex="1" parent="1">
          <mxGeometry x="600" y="990" width="60" height="30" as="geometry" />
        </mxCell>
        <mxCell id="FAw5ZqKxNvdC2Ta-IT2S-102" value="4" style="text;html=1;align=center;verticalAlign=middle;whiteSpace=wrap;rounded=0;" vertex="1" parent="1">
          <mxGeometry x="950" y="990" width="60" height="30" as="geometry" />
        </mxCell>
        <mxCell id="FAw5ZqKxNvdC2Ta-IT2S-103" value="2.1" style="text;html=1;align=center;verticalAlign=middle;whiteSpace=wrap;rounded=0;" vertex="1" parent="1">
          <mxGeometry x="75" y="1260" width="60" height="30" as="geometry" />
        </mxCell>
        <mxCell id="FAw5ZqKxNvdC2Ta-IT2S-104" value="2.2" style="text;html=1;align=center;verticalAlign=middle;whiteSpace=wrap;rounded=0;" vertex="1" parent="1">
          <mxGeometry x="360" y="1260" width="60" height="30" as="geometry" />
        </mxCell>
        <mxCell id="FAw5ZqKxNvdC2Ta-IT2S-105" value="4.1" style="text;html=1;align=center;verticalAlign=middle;whiteSpace=wrap;rounded=0;" vertex="1" parent="1">
          <mxGeometry x="-50" y="1450" width="60" height="30" as="geometry" />
        </mxCell>
        <mxCell id="FAw5ZqKxNvdC2Ta-IT2S-106" value="4.2" style="text;html=1;align=center;verticalAlign=middle;whiteSpace=wrap;rounded=0;" vertex="1" parent="1">
          <mxGeometry x="-60" y="1580" width="60" height="30" as="geometry" />
        </mxCell>
        <mxCell id="FAw5ZqKxNvdC2Ta-IT2S-107" value="" style="endArrow=classic;html=1;rounded=0;exitX=1;exitY=0.5;exitDx=0;exitDy=0;" edge="1" parent="1" source="FAw5ZqKxNvdC2Ta-IT2S-96">
          <mxGeometry width="50" height="50" relative="1" as="geometry">
            <mxPoint x="140" y="1500" as="sourcePoint" />
            <mxPoint x="150" y="1620" as="targetPoint" />
          </mxGeometry>
        </mxCell>
        <mxCell id="FAw5ZqKxNvdC2Ta-IT2S-109" value="" style="endArrow=classic;html=1;rounded=0;entryX=1;entryY=0.25;entryDx=0;entryDy=0;exitX=0;exitY=0.5;exitDx=0;exitDy=0;" edge="1" parent="1" target="FAw5ZqKxNvdC2Ta-IT2S-69">
          <mxGeometry width="50" height="50" relative="1" as="geometry">
            <mxPoint x="380" y="860" as="sourcePoint" />
            <mxPoint x="410" y="780" as="targetPoint" />
          </mxGeometry>
        </mxCell>
        <mxCell id="FAw5ZqKxNvdC2Ta-IT2S-111" value="Информация про вакансии" style="text;html=1;align=center;verticalAlign=middle;whiteSpace=wrap;rounded=0;" vertex="1" parent="1">
          <mxGeometry x="270" y="821" width="60" height="30" as="geometry" />
        </mxCell>
      </root>
    </mxGraphModel>
  </diagram>
</mxfile>
